<?xml version="1.0" encoding="utf-8"?>
<!DOCTYPE svg PUBLIC "-//W3C//DTD SVG 1.0//EN" "http://www.w3.org/TR/2001/REC-SVG-20010904/DTD/svg10.dtd">
<svg version="1.0" xmlns="http://www.w3.org/2000/svg" width="1295px" height="1295px" viewBox="0 0 1295 1295" preserveAspectRatio="xMidYMid meet">
 <g fill="#000000">
 </g>
 <g fill="#f89827">
  <path d="M843.01 1124.40 c-0.38 -3.41 -0.38 -10.24 0 -15.18 0.89 -8.60 0.76 -8.98 -1.90 -8.98 -1.39 0 -2.66 -0.51 -2.66 -1.26 0 -0.63 -1.39 -1.26 -3.04 -1.26 -3.41 0 -4.55 -3.54 -4.55 -14.04 0 -9.86 -1.90 -10.50 -30.60 -11 l-23.78 -0.51 0 -18.84 c0 -15.93 -0.25 -18.84 -1.90 -18.84 -1.01 0 -1.90 -1.01 -1.90 -2.15 0.13 -1.39 2.53 -3.41 6.58 -5.44 9.86 -4.68 27.06 -14.67 37.69 -21.88 55.77 -37.18 97.88 -84.98 127.73 -145.06 7.08 -14.04 18.21 -41.35 22 -54 0.63 -1.90 -0.63 -5.69 -4.17 -12.65 -7.59 -14.80 -10.24 -26.05 -10.24 -42.87 0 -22.64 6.32 -41.35 19.73 -58.93 12.01 -15.56 33.51 -29.34 51.85 -33.26 11.63 -2.53 35.28 -2.40 45.27 0.13 24.53 6.20 48.69 26.05 60.07 49.45 14.80 30.10 11.26 69.81 -8.35 96.75 -2.66 3.67 -5.69 9.11 -6.45 12.01 -1.26 4.43 -3.04 6.45 -9.48 11 -15.68 11.13 -29.47 16.57 -47.93 18.72 l-12.14 1.39 -4.05 12.77 c-20.99 66.65 -59.82 136.83 -107.24 193.62 -12.14 14.54 -53.75 56.15 -65.38 65.38 -10.50 8.35 -15.68 11.13 -20.61 11.13 -3.54 0 -3.79 -0.38 -4.55 -6.20z"/>
  <path d="M317.93 1099.11 c-30.48 -20.36 -47.30 -34.27 -76.51 -63.36 -45.78 -45.65 -73.35 -82.96 -99.78 -135.32 -27.57 -54.76 -44.90 -112.43 -52.74 -175.79 -3.16 -25.29 -3.04 -84.86 0.13 -111.79 16.57 -141.39 87.26 -265.70 201.21 -353.85 55.27 -42.62 122.17 -75.37 190.96 -93.33 33.77 -8.73 61.59 -12.90 101.17 -15.30 70.31 -4.17 130.39 3.41 192.86 24.15 38.70 12.77 89.16 36.17 89.16 41.10 0 1.52 -8.09 7.84 -23.40 18.46 -12.90 8.98 -24.28 16.69 -25.29 17.20 -1.01 0.38 -7.84 4.81 -14.92 9.74 -21.25 14.54 -19.10 13.91 -31.11 9.36 -19.73 -7.46 -47.04 -15.93 -62.09 -19.35 -48.31 -10.75 -103.45 -13.15 -151.76 -6.45 -32.50 4.55 -82.58 17.45 -96.75 24.79 -2.40 1.26 -6.70 3.04 -9.48 3.92 -8.22 2.53 -33.13 14.29 -48.06 22.64 -107.75 60.96 -180.21 155.43 -209.81 273.80 -7.97 32 -12.14 67.41 -12.14 103.83 0 12.65 0.38 24.03 0.89 25.17 0.63 1.90 1.01 1.77 2.53 -0.76 2.91 -5.06 1.26 11.51 -2.40 25.42 -6.45 23.90 -7.84 35.41 -7.84 63.86 0 28.33 1.90 43.76 8.73 74.61 8.35 36.93 25.42 79.80 45.27 113.19 25.04 42.11 50.46 72.59 89.54 107.62 20.99 18.84 22.64 20.61 22.64 24.66 0 2.40 -0.51 4.30 -1.14 4.30 -0.63 0 -9.61 -5.69 -19.85 -12.52z"/>
  <path d="M619.68 813.04 c-21.37 -3.79 -40.97 -12.90 -56.28 -26.18 -4.81 -4.30 -47.17 -44.90 -84.73 -81.19 -9.74 -9.48 -21.63 -20.87 -26.56 -25.29 -4.81 -4.55 -24.53 -23.27 -43.63 -41.86 -38.45 -37.31 -52.99 -50.21 -63.99 -56.78 -8.09 -4.81 -22 -9.99 -27.19 -10.12 -9.99 -0.13 -36.80 10.12 -49.95 18.84 -5.19 3.67 -13.15 5.31 -13.15 2.91 0 -1.39 16.44 -15.93 25.17 -22.26 38.32 -28.08 88.53 -47.55 128.24 -49.70 l12.27 -0.76 8.60 8.09 c4.68 4.43 38.57 37.05 75.37 72.59 97.88 94.34 137.72 132.16 139.49 132.16 0.89 0 7.71 -5.82 15.30 -12.90 55.14 -52.23 114.07 -133.29 174.14 -239.40 15.05 -26.68 37.56 -68.80 40.47 -75.63 l1.90 -4.68 -3.16 0 c-1.77 0 -3.16 -0.76 -3.16 -1.77 0 -4.43 -87.39 -14.16 -161.50 -17.96 -18.08 -0.89 -20.87 -2.15 -15.30 -6.96 6.70 -5.69 190.96 -130.51 337.91 -229.03 57.92 -38.82 70.19 -46.54 73.86 -46.54 4.05 0 4.30 0.25 3.67 3.54 -1.39 6.70 -62.73 154.92 -83.47 201.33 -64.50 144.80 -108.38 228.52 -166.30 317.43 -49.95 76.64 -112.30 147.96 -151.25 173 -22 14.04 -38.45 19.22 -63.36 19.85 -8.98 0.25 -19.60 0 -23.40 -0.76z"/>
 </g>
 <g fill="#ec661d">
  <path d="M843.52 1130.09 c0 -2.28 0.89 -4.93 1.90 -5.82 1.52 -1.26 1.90 -1.26 1.90 0.51 0 1.14 0.76 2.02 1.64 2.02 5.44 0 60.07 -51.72 80.81 -76.51 47.42 -56.91 86.25 -126.97 107.24 -193.74 l4.05 -12.77 9.11 -0.89 c12.01 -1.14 18.72 -2.66 28.58 -6.58 8.60 -3.41 26.81 -14.67 30.86 -19.22 5.56 -6.20 5.69 -2.66 0.25 13.53 -19.98 59.06 -47.80 109.52 -88.40 160.23 -17.58 22 -28.58 33.89 -48.94 53.24 -35.41 33.39 -73.60 61.21 -113.06 82.20 -8.35 4.43 -15.30 8.09 -15.56 8.09 -0.25 0 -0.38 -1.90 -0.38 -4.30z"/>
  <path d="M488.15 1090 c-65.26 -6.20 -132.16 -33.64 -184.51 -75.75 -18.21 -14.67 -43.12 -41.10 -56.40 -59.94 l-11.38 -16.06 -8.22 0.89 c-4.55 0.51 -8.60 1.39 -8.98 1.90 -0.38 0.63 -3.92 1.01 -7.97 0.89 l-7.33 -0.38 -5.69 -13.91 c-12.77 -31.49 -20.11 -58.05 -25.93 -93.20 -2.28 -13.91 -2.78 -22 -2.78 -47.17 0 -32.50 1.14 -42.62 7.71 -67.66 1.77 -6.58 3.41 -13.15 3.54 -14.54 0.13 -1.39 1.90 -5.94 3.79 -10.12 18.08 -39.33 24.53 -50.59 41.61 -72.08 9.99 -12.65 32.88 -36.30 34.65 -35.79 0.51 0.25 7.46 -2.91 15.43 -6.96 24.28 -12.01 40.97 -14.80 57.04 -9.36 18.08 6.20 28.71 14.80 79.55 63.99 19.10 18.59 38.82 37.31 43.63 41.86 4.93 4.43 16.82 15.81 26.56 25.29 37.56 36.30 79.93 76.89 84.73 81.19 12.52 10.88 28.83 19.35 46.16 24.03 14.80 3.92 37.94 3.92 52.48 -0.13 27.44 -7.46 51.34 -24.15 86.12 -59.94 100.29 -103.32 194.88 -268.74 304.65 -532.67 20.74 -49.70 44.39 -107.50 46.54 -113.44 1.01 -2.78 5.94 -3.04 5.94 -0.25 0 1.01 4.05 33.39 8.98 71.71 13.91 108.89 30.98 244.96 37.18 294.92 3.04 25.04 7.84 63.99 10.75 86.63 6.20 49.83 6.20 52.86 1.77 57.42 -3.67 3.54 -8.85 4.30 -13.53 1.77 -5.44 -2.78 -76.38 -61.71 -113.69 -94.34 -2.66 -2.40 -5.69 -4.05 -6.83 -3.79 -1.14 0.25 -8.22 12.27 -16.44 27.95 -41.86 80.18 -96.62 163.90 -142.65 218.40 -44.14 52.36 -95.10 100.67 -136.71 129.75 -38.07 26.68 -64.62 35.79 -99.78 34.27 -35.28 -1.52 -62.09 -13.41 -91.81 -40.85 -6.58 -6.07 -39.58 -37.56 -73.35 -70.06 -123.30 -118.50 -117.49 -113.19 -121.79 -113.82 -3.54 -0.51 -4.05 -1.14 -4.43 -5.19 -0.38 -3.92 0.51 -5.44 7.33 -12.90 6.70 -7.33 19.10 -18.08 29.09 -25.29 3.16 -2.15 2.91 -2.28 -7.59 -1.52 -52.86 3.79 -104.08 35.92 -135.95 85.24 -15.30 23.65 -30.73 65.64 -27.95 76.38 1.01 4.30 13.41 22.13 25.42 36.93 28.58 34.78 70.19 68.80 107.24 87.39 3.67 1.90 8.60 5.69 10.88 8.60 10.24 12.14 34.52 35.79 46.29 44.90 54.13 42.11 124.19 67.41 195.77 70.57 16.44 0.63 18.59 1.01 18.59 2.91 0 1.26 -0.76 2.78 -1.64 3.67 -2.78 2.28 -31.49 11.38 -44.01 14.04 -23.02 4.68 -55.90 6.20 -82.08 3.67z"/>
  <path d="M771.81 453.76 c-24.53 -22 -47.17 -43.25 -47.17 -44.01 0 -0.63 4.17 -1.77 9.23 -2.53 13.28 -2.28 40.60 -9.48 60.96 -16.06 l17.71 -5.82 17.71 2.28 c27.95 3.41 43 6.20 42.75 7.84 -0.13 0.76 0.76 1.14 2.15 0.76 1.90 -0.51 2.28 -0.13 1.64 2.02 -0.51 1.90 -1.64 2.66 -4.30 2.66 -2.28 0 -7.08 2.53 -13.41 6.96 -5.44 3.79 -12.39 8.47 -15.43 10.37 -3.04 2.02 -9.11 6.20 -13.66 9.61 -4.43 3.29 -8.35 5.94 -8.73 5.94 -0.25 0 -9.36 5.94 -19.98 13.28 -10.75 7.33 -20.11 13.28 -20.87 13.28 -0.76 0 -4.68 -2.91 -8.60 -6.58z"/>
 </g>
 <g fill="#f48624">
  <path d="M583 1188.01 c-2.40 -0.25 -11.51 -1.14 -20.23 -1.90 -66.01 -5.82 -133.17 -25.67 -195.64 -58.05 -24.41 -12.65 -32 -17.33 -32 -19.73 0 -0.89 -10.24 -10.75 -22.64 -21.88 -45.27 -40.47 -74.87 -78.41 -102.18 -130.39 -8.85 -16.69 -8.85 -16.95 -4.05 -19.35 3.54 -1.64 4.30 -1.64 5.94 -0.13 1.01 1.01 2.15 1.52 2.66 1.01 0.38 -0.51 0 -1.14 -0.76 -1.39 -0.89 -0.38 -1.64 -1.14 -1.64 -1.77 0 -0.76 1.01 -0.63 2.53 0.13 1.52 0.89 2.53 0.89 2.53 0.13 0 -1.26 4.05 -0.89 6.32 0.51 0.76 0.38 1.26 0.13 1.26 -0.76 0 -0.89 1.14 -1.14 2.78 -0.76 1.52 0.51 3.54 0.13 4.43 -0.63 0.89 -0.76 1.64 -0.89 1.77 -0.25 0 0.63 0.51 0.13 1.01 -1.26 0.76 -1.90 3.04 0.63 12.14 13.66 32.25 46.29 73.48 81.19 126.46 106.99 65.13 31.62 133.93 42.49 192.61 30.35 14.42 -3.04 42.62 -12.27 44.64 -14.67 1.14 -1.39 5.19 -1.77 16.82 -1.77 38.95 0 91.56 -12.14 133.42 -30.73 8.73 -3.79 16.57 -6.70 17.45 -6.32 1.77 0.76 2.02 3.16 1.90 24.66 l0 14.67 23.65 0.51 c27.82 0.51 30.48 1.26 30.48 9.86 0 3.79 0.51 5.06 2.02 5.06 1.14 0 1.77 0.76 1.39 1.64 -0.25 0.76 -1.26 1.39 -2.15 1.14 -1.01 -0.25 -1.26 0.38 -0.63 1.90 0.51 1.26 1.01 3.04 1.01 3.92 0 0.76 1.39 1.52 3.04 1.52 1.64 0 2.91 0.63 2.91 1.26 0 0.76 1.14 1.26 2.53 1.26 2.40 0 2.53 0.76 2.28 14.80 -0.13 10.62 0.25 14.92 1.39 15.30 1.14 0.38 1.14 0.89 0 2.28 -1.26 1.52 -1.01 1.64 0.89 0.89 1.26 -0.51 0.38 0.89 -2.15 3.16 -2.53 2.28 -5.44 4.05 -6.45 4.05 -0.89 0 -2.91 0.76 -4.30 1.77 -1.39 1.01 -10.75 5.06 -20.74 8.98 -10.12 3.92 -21.75 8.73 -25.93 10.62 -4.17 2.02 -10.37 4.30 -13.91 5.19 -3.41 0.89 -12.90 3.41 -20.87 5.69 -53.75 15.18 -74.99 18.34 -132.16 18.97 -19.48 0.25 -37.43 0.13 -39.84 -0.13z"/>
 </g>
 <g fill="#cc5b1f">
  <path d="M371.68 969.10 c-13.91 -14.16 -16.95 -16.69 -26.43 -21.25 -48.56 -23.90 -98.52 -67.41 -129.25 -112.68 -10.37 -15.43 -10.62 -16.19 -7.97 -29.34 6.07 -30.86 20.87 -62.09 41.10 -86.88 26.94 -33.01 64.50 -56.53 102.94 -64.37 12.14 -2.53 32.50 -3.92 41.73 -2.78 l7.21 1.01 -9.23 5.69 c-12.14 7.46 -24.66 17.71 -34.15 28.08 l-7.59 8.35 16.82 16.44 c9.36 8.98 14.67 14.54 11.89 12.39 -2.78 -2.15 -9.36 -8.35 -14.54 -13.53 -13.91 -14.16 -17.45 -13.41 -30.35 6.32 -11.76 17.96 -20.49 39.58 -25.55 62.85 -4.05 18.72 -4.05 52.48 0 72.59 5.44 27.06 17.20 55.27 32.63 78.16 11.51 17.20 15.18 21.63 32.63 39.58 8.35 8.47 14.80 15.43 14.42 15.43 -0.25 0 -7.71 -7.21 -16.31 -16.06z"/>
  <path d="M719.84 406.33 c-9.48 -8.73 -20.36 -18.72 -23.90 -22 -3.67 -3.41 -6.70 -6.58 -6.70 -7.08 0 -2.53 126.46 6.70 133.42 9.74 2.28 1.01 2.28 1.14 -0.63 1.14 -1.77 0.13 -10.12 2.40 -18.34 5.19 -19.73 6.70 -48.69 14.42 -63.74 17.20 l-12.01 2.15 5.69 4.93 c3.04 2.66 5.19 4.81 4.55 4.81 -0.51 0 -8.73 -7.21 -18.34 -16.06z"/>
 </g>
</svg>